<?xml version="1.0" encoding="utf-8"?>
<!-- Generator: Adobe Illustrator 21.1.0, SVG Export Plug-In . SVG Version: 6.00 Build 0)  -->
<svg version="1.1" xmlns="http://www.w3.org/2000/svg" xmlns:xlink="http://www.w3.org/1999/xlink" x="0px" y="0px"
	 viewBox="0 0 232 73.2" enable-background="new 0 0 232 73.2" xml:space="preserve">
<g id="Слой_1">
	<g>
		<circle fill="#FFCC00" cx="16.3" cy="11.4" r="6.2"/>
		<path fill="#FFCC00" d="M59.9,27.9l3.5-14.8c0.2,0,0.4,0.1,0.7,0.1c3.6,0,6.6-3,6.6-6.6S67.8,0,64.1,0c-3.6,0-6.6,3-6.6,6.6
			c0,2.7,1.6,5,4,6.1l-3.5,14.6c-2-0.6-4.2-0.9-6.4-0.9c-6.3,0-12,2.5-16.2,6.5L23.3,19.3c2.2-2,3.6-4.8,3.6-7.9
			c0-5.9-4.8-10.7-10.7-10.7c-5.9,0-10.7,4.8-10.7,10.7c0,5.9,4.8,10.7,10.7,10.7c2,0,3.8-0.6,5.4-1.5L34,34.4
			c-3.6,4-5.7,9.3-5.8,15.1l-10.9,0.8c0-0.1,0-0.2,0-0.3c0-4.8-3.9-8.6-8.6-8.6C3.9,41.4,0,45.3,0,50c0,4.8,3.9,8.6,8.6,8.6
			c4,0,7.3-2.7,8.3-6.3l11.3-0.9c0.9,12.1,11,21.7,23.3,21.7C64.5,73.2,75,62.7,75,49.8C75,39.8,68.7,31.3,59.9,27.9z M59.5,6.6
			c0-2.5,2.1-4.6,4.6-4.6s4.6,2.1,4.6,4.6s-2.1,4.6-4.6,4.6S59.5,9.1,59.5,6.6z M16.3,20c-4.8,0-8.6-3.9-8.6-8.6
			c0-4.8,3.9-8.6,8.6-8.6s8.6,3.9,8.6,8.6S21,20,16.3,20z M8.6,56.6C5,56.6,2,53.7,2,50c0-3.6,3-6.6,6.6-6.6s6.6,3,6.6,6.6
			C15.3,53.7,12.3,56.6,8.6,56.6z M51.6,70.7c-11.5,0-20.9-9.4-20.9-20.9c0-11.5,9.4-20.9,20.9-20.9c11.5,0,20.9,9.4,20.9,20.9
			C72.5,61.3,63.1,70.7,51.6,70.7z"/>
		<circle fill="#FFCC00" cx="64.1" cy="6.6" r="3.1"/>
		<path fill="#FFCC00" d="M54,51c-0.5-0.2-1.2-0.3-2.2-0.3h-2.3v3.8c0,0.5,0,0.9,0.1,0.9c0,0.1,0.1,0.2,0.2,0.2
			c0.1,0,0.4,0.1,0.8,0.1h1.3c0.7,0,1.4-0.1,1.8-0.2c0.5-0.1,0.9-0.4,1.2-0.9c0.3-0.4,0.5-1,0.5-1.6c0-0.5-0.1-1-0.4-1.3
			C54.9,51.4,54.5,51.2,54,51z"/>
		<path fill="#FFCC00" d="M51.6,31.1c-10.3,0-18.7,8.4-18.7,18.7c0,10.3,8.4,18.7,18.7,18.7c10.3,0,18.7-8.4,18.7-18.7
			C70.3,39.5,61.9,31.1,51.6,31.1z M59.2,56.2c-0.6,0.8-1.3,1.4-2.4,1.8c-0.4,0.1-0.8,0.3-1.3,0.4v3.1h-3v-2.9c-0.1,0-0.1,0-0.2,0
			h-1.7v2.9h-3v-2.9h-4.5v-2.4h0.7c0.5,0,0.8,0,0.9-0.1c0.2-0.1,0.3-0.2,0.3-0.3c0.1-0.1,0.1-0.5,0.1-1v-9.8c0-0.5,0-0.9-0.1-1
			c-0.1-0.1-0.2-0.3-0.3-0.3c-0.2-0.1-0.5-0.1-0.9-0.1h-0.7V41h4.5v-2.9h3V41h1.9v-2.9h3v3.1c0.4,0.1,0.8,0.2,1.2,0.3
			c0.9,0.4,1.5,0.9,2,1.5c0.5,0.7,0.7,1.4,0.7,2.2c0,0.6-0.1,1.1-0.4,1.6c-0.2,0.5-0.6,1-1.1,1.4c-0.5,0.4-1.1,0.7-1.8,1
			c0.8,0.2,1.5,0.4,1.9,0.7c0.6,0.4,1.1,0.8,1.5,1.5c0.4,0.6,0.6,1.3,0.6,2.1C60,54.5,59.7,55.4,59.2,56.2z"/>
		<path fill="#FFCC00" d="M53.7,47.9c0.5-0.2,0.8-0.4,1.1-0.8c0.2-0.3,0.4-0.7,0.4-1.2c0-0.5-0.1-0.9-0.4-1.2
			c-0.2-0.3-0.6-0.6-1-0.7c-0.4-0.1-1.2-0.2-2.3-0.2h-1.9v4.3h1.9C52.5,48.1,53.2,48.1,53.7,47.9z"/>
		<circle fill="#FFCC00" cx="8.6" cy="50" r="4.2"/>
	</g>
</g>
<g id="Слой_2">
	<g>
		<path fill="#FFFFFF" d="M111.7,27.8l0,3.4h-7.8v3.6h7.2v3.4h-7.2v5.8h-4.2V27.8H111.7z"/>
		<path fill="#FFFFFF" d="M120,31.5v12.4h-4.1V31.5H120z M119.9,28c0,1.1-0.8,1.9-1.9,1.9c-1.1,0-1.9-0.8-1.9-1.9
			c0-1.1,0.8-1.9,1.9-1.9C119.1,26.1,119.9,26.9,119.9,28z"/>
		<path fill="#FFFFFF" d="M138.2,36.1v7.8h-4.1v-6.7c0-1.4-0.8-2.3-2.1-2.3c-1.4,0-2.3,1-2.4,2.4v6.6h-4.1V31.5h4.1v2
			c0.9-1.4,2.3-2.2,4.1-2.2C136.4,31.3,138.2,33.1,138.2,36.1z"/>
		<path fill="#FFFFFF" d="M148.8,34.7c-1.5,0-2.5,1.2-2.5,3c0,1.8,1,3,2.5,3c1.1,0,1.9-0.4,2.4-1.4l3,1.7c-1,1.9-3,3-5.7,3
			c-3.8,0-6.4-2.5-6.4-6.3c0-3.9,2.6-6.4,6.4-6.4c2.5,0,4.5,1.1,5.6,2.9l-3,1.7C150.7,35.2,149.9,34.7,148.8,34.7z"/>
		<path fill="#FFFFFF" d="M171.3,36.1v7.8h-4.1v-6.7c0-1.4-0.8-2.3-2.1-2.3c-1.5,0-2.4,1.2-2.4,2.8v6.1h-4.1V26.8h4.1v6.6
			c0.9-1.4,2.3-2.2,4.1-2.2C169.5,31.3,171.3,33.1,171.3,36.1z"/>
		<path fill="#FFFFFF" d="M187.5,35.8v8.1h-4v-1.4c-0.8,1-2.1,1.6-3.7,1.6c-2.7,0-4.3-1.6-4.3-3.9c0-2.4,1.7-3.7,4.8-3.8h3.2v-0.1
			c0-1.2-0.8-1.9-2.4-1.9c-1,0-2.4,0.3-3.7,1l-1.1-2.8c2-0.9,3.7-1.4,5.8-1.4C185.4,31.3,187.4,32.9,187.5,35.8z M183.4,39.7v-1.1
			H181c-1.2,0-1.7,0.4-1.7,1.3c0,0.9,0.6,1.4,1.7,1.4C182.2,41.3,183.2,40.6,183.4,39.7z"/>
		<path fill="#FFFFFF" d="M196.6,31.5v12.4h-4.1V31.5H196.6z M196.4,28c0,1.1-0.8,1.9-1.9,1.9s-1.9-0.8-1.9-1.9
			c0-1.1,0.8-1.9,1.9-1.9S196.4,26.9,196.4,28z"/>
		<path fill="#FFFFFF" d="M214.7,36.1v7.8h-4.1v-6.7c0-1.4-0.8-2.3-2.1-2.3c-1.4,0-2.3,1-2.4,2.4v6.6H202V31.5h4.1v2
			c0.9-1.4,2.3-2.2,4.1-2.2C212.9,31.3,214.7,33.1,214.7,36.1z"/>
		<path fill="#FFFFFF" d="M99.6,56.5l1.7,5l1.6-5h1.4l1.6,5l1.6-5h1.4l-2.3,6.4h-1.4l-1.6-4.7l-1.6,4.7h-1.4l-2.4-6.4H99.6z"/>
		<path fill="#FFFFFF" d="M116.3,59.7c0,1.9-1.4,3.3-3.3,3.3c-2,0-3.3-1.3-3.3-3.3c0-1.9,1.4-3.2,3.3-3.2
			C114.9,56.5,116.3,57.8,116.3,59.7z M111,59.7c0,1.2,0.8,2.1,2,2.1c1.1,0,1.9-0.8,1.9-2.1c0-1.2-0.8-2.1-1.9-2.1
			C111.8,57.6,111,58.5,111,59.7z"/>
		<path fill="#FFFFFF" d="M121.9,56.5v1.3c-1.3-0.1-2.1,0.7-2.2,1.8v3.3h-1.4v-6.4h1.4v1.3C120.1,56.9,120.9,56.5,121.9,56.5z"/>
		<path fill="#FFFFFF" d="M129.7,54v8.9h-1.4v-1.1c-0.5,0.7-1.2,1.2-2.2,1.2c-1.8,0-3.1-1.3-3.1-3.3c0-1.9,1.2-3.2,3-3.2
			c1,0,1.8,0.4,2.3,1.2V54H129.7z M128.3,59.7c0-1.2-0.8-2.1-2-2.1c-1.2,0-2,0.9-2,2.1c0,1.2,0.8,2.1,2,2.1
			C127.5,61.8,128.3,60.9,128.3,59.7z"/>
		<path fill="#FFFFFF" d="M139.1,59.7c0,1.9-1.2,3.2-3,3.2c-1,0-1.8-0.4-2.3-1.2v3.4h-1.4v-8.7h1.4v1.1c0.5-0.7,1.2-1.2,2.2-1.2
			C137.9,56.5,139.1,57.8,139.1,59.7z M137.8,59.7c0-1.2-0.8-2.1-1.9-2.1c-1.1,0-1.9,0.9-1.9,2.1c0,1.2,0.8,2.1,1.9,2.1
			C137,61.8,137.8,60.9,137.8,59.7z"/>
		<path fill="#FFFFFF" d="M144.8,56.5v1.3c-1.3-0.1-2.1,0.7-2.2,1.8v3.3h-1.4v-6.4h1.4v1.3C143,56.9,143.8,56.5,144.8,56.5z"/>
		<path fill="#FFFFFF" d="M152.1,60.2h-4.8c0.2,1,1,1.6,2,1.6c0.7,0,1.3-0.3,1.8-0.7l0.7,0.8c-0.6,0.7-1.5,1.1-2.6,1.1
			c-2,0-3.3-1.3-3.3-3.2c0-1.9,1.3-3.2,3.2-3.3C151.4,56.5,152.3,57.9,152.1,60.2z M150.9,59.2c0-1-0.7-1.7-1.8-1.7
			c-1,0-1.7,0.6-1.9,1.7H150.9z"/>
		<path fill="#FFFFFF" d="M156,57.6c-0.5,0-0.9,0.2-0.9,0.6c0,1.2,3.4,0.5,3.4,2.9c0,1.3-1.2,1.9-2.4,1.9c-0.9,0-1.9-0.3-2.6-0.9
			l0.5-1c0.6,0.5,1.4,0.8,2.1,0.8c0.6,0,1-0.2,1-0.7c0-1.3-3.4-0.6-3.3-2.9c0-1.3,1.1-1.8,2.4-1.8c0.8,0,1.7,0.2,2.2,0.6l-0.5,1
			C157.2,57.8,156.5,57.6,156,57.6z"/>
		<path fill="#FFFFFF" d="M162.2,57.6c-0.5,0-0.9,0.2-0.9,0.6c0,1.2,3.4,0.5,3.4,2.9c0,1.3-1.2,1.9-2.4,1.9c-0.9,0-1.9-0.3-2.6-0.9
			l0.5-1c0.6,0.5,1.4,0.8,2.1,0.8c0.6,0,1-0.2,1-0.7c0-1.3-3.4-0.6-3.3-2.9c0-1.3,1.1-1.8,2.4-1.8c0.8,0,1.7,0.2,2.2,0.6l-0.5,1
			C163.5,57.8,162.8,57.6,162.2,57.6z"/>
		<path fill="#FFFFFF" d="M174.5,62.5c-0.5,0.3-1,0.5-1.6,0.5c-1,0-1.8-0.6-1.8-1.9v-3.3h-0.9v-1h0.9V55h1.4v1.8h1.9v1h-1.9v3.1
			c0,0.7,0.3,0.9,0.7,0.9c0.3,0,0.6-0.1,1-0.3L174.5,62.5z"/>
		<path fill="#FFFFFF" d="M182.5,58.9v4h-1.4v-3.6c0-1-0.6-1.5-1.5-1.5c-1.1,0-1.8,0.9-1.8,2v3.1h-1.4V54h1.4v3.8
			c0.5-0.9,1.3-1.3,2.4-1.3C181.6,56.5,182.5,57.4,182.5,58.9z"/>
		<path fill="#FFFFFF" d="M190.6,60.2h-4.8c0.2,1,1,1.6,2,1.6c0.7,0,1.3-0.3,1.8-0.7l0.7,0.8c-0.6,0.7-1.5,1.1-2.6,1.1
			c-2,0-3.3-1.3-3.3-3.2c0-1.9,1.3-3.2,3.2-3.3C189.8,56.5,190.7,57.9,190.6,60.2z M189.4,59.2c0-1-0.7-1.7-1.8-1.7
			c-1,0-1.7,0.6-1.9,1.7H189.4z"/>
		<path fill="#FFFFFF" d="M203.3,58.9v4h-1.4v-3.6c0-1-0.6-1.6-1.5-1.6c-1.1,0-1.8,0.9-1.8,2v3.2h-1.4v-3.6c0-1-0.6-1.6-1.5-1.6
			c-1.1,0-1.8,0.9-1.8,2v3.2h-1.4v-6.4h1.4v1.2c0.4-0.9,1.3-1.3,2.3-1.3c1.1,0,1.9,0.6,2.2,1.5c0.4-1.1,1.3-1.5,2.4-1.5
			C202.4,56.5,203.3,57.4,203.3,58.9z"/>
		<path fill="#FFFFFF" d="M211.4,60.2h-4.8c0.2,1,1,1.6,2,1.6c0.7,0,1.3-0.3,1.8-0.7l0.7,0.8c-0.6,0.7-1.5,1.1-2.6,1.1
			c-2,0-3.3-1.3-3.3-3.2c0-1.9,1.3-3.2,3.2-3.3C210.6,56.5,211.5,57.9,211.4,60.2z M210.2,59.2c0-1-0.7-1.7-1.8-1.7
			c-1,0-1.7,0.6-1.9,1.7H210.2z"/>
	</g>
</g>
</svg>
